<svg width="21" height="20" viewBox="0 0 21 20" fill="none" xmlns="http://www.w3.org/2000/svg">
<path d="M11.4345 0.703046C11.2275 0.273407 10.7901 0 10.3096 0C9.82923 0 9.39569 0.273407 9.18477 0.703046L6.67333 5.87044L1.06459 6.69847C0.595888 6.76877 0.205307 7.09686 0.0607919 7.54603C-0.0837232 7.9952 0.033451 8.49124 0.369351 8.82323L4.43921 12.8501L3.47838 18.5409C3.40026 19.0096 3.59555 19.4861 3.98223 19.7634C4.3689 20.0407 4.88057 20.0759 5.30239 19.8532L10.3136 17.1778L15.3247 19.8532C15.7465 20.0759 16.2582 20.0446 16.6449 19.7634C17.0316 19.4822 17.2268 19.0096 17.1487 18.5409L16.184 12.8501L20.2538 8.82323C20.5897 8.49124 20.7108 7.9952 20.5624 7.54603C20.414 7.09686 20.0273 6.76877 19.5586 6.69847L13.946 5.87044L11.4345 0.703046Z" fill="#3186E2"/>
</svg>
