<svg width="23" height="20" viewBox="0 0 23 20" fill="none" xmlns="http://www.w3.org/2000/svg">
<path d="M13.7047 0.125894C13.1914 0.353562 12.8566 0.866932 12.8566 1.42941V4.28642H7.85679C3.5177 4.28642 0 7.80412 0 12.1432C0 17.201 3.63823 19.4598 4.47301 19.9152C4.58462 19.9777 4.70961 20 4.8346 20C5.32119 20 5.71403 19.6027 5.71403 19.1206C5.71403 18.7858 5.52207 18.4777 5.27655 18.2501C4.85692 17.8528 4.28552 17.0716 4.28552 15.7145C4.28552 13.3485 6.20508 11.429 8.57104 11.429H12.8566V14.286C12.8566 14.8484 13.1869 15.3618 13.7047 15.5895C14.2226 15.8172 14.8208 15.7234 15.2404 15.3484L22.3829 8.92014C22.682 8.64783 22.8561 8.26392 22.8561 7.85769C22.8561 7.45146 22.6865 7.06755 22.3829 6.79524L15.2404 0.366954C14.8208 -0.0124929 14.2181 -0.106239 13.7047 0.125894Z" fill="#3186E2"/>
</svg>
