<svg width="19" height="20" viewBox="0 0 19 20" fill="none" xmlns="http://www.w3.org/2000/svg">
<path d="M9.42657 0C9.60724 0 9.78792 0.0392773 9.95288 0.113904L17.3488 3.25216C18.2129 3.61744 18.857 4.46976 18.8531 5.49882C18.8335 9.39513 17.231 16.524 10.4635 19.7643C9.80756 20.0786 9.04558 20.0786 8.38965 19.7643C1.62217 16.524 0.0196565 9.39513 1.78652e-05 5.49882C-0.00390986 4.46976 0.640238 3.61744 1.50434 3.25216L8.90418 0.113904C9.06522 0.0392773 9.24589 0 9.42657 0ZM9.42657 2.62372V17.4745C14.8468 14.8468 16.304 9.03771 16.3394 5.55381L9.42657 2.62372Z" fill="#3186E2"/>
</svg>
