<svg width="27" height="20" viewBox="0 0 27 20" fill="none" xmlns="http://www.w3.org/2000/svg">
<path d="M11.3335 19.9562C11.8239 20.1288 12.3506 19.7701 12.3506 19.2524V2.11595C12.3506 1.92524 12.278 1.73453 12.1236 1.61648C11.2336 0.908133 9.19031 0 6.53856 0C4.24552 0 2.10233 0.603908 0.82186 1.0943C0.308765 1.29409 0 1.80264 0 2.35206V19.1661C0 19.7065 0.581205 20.0834 1.0943 19.9154C2.52461 19.4386 4.7904 18.8892 6.53856 18.8892C8.07784 18.8892 10.1257 19.5249 11.3335 19.9562ZM14.8207 19.9562C16.0285 19.5249 18.0764 18.8892 19.6157 18.8892C21.3638 18.8892 23.6296 19.4386 25.0599 19.9154C25.573 20.0879 26.1542 19.7065 26.1542 19.1661V2.35206C26.1542 1.80264 25.8455 1.29409 25.3324 1.09884C24.0519 0.603908 21.9087 0 19.6157 0C16.9639 0 14.9206 0.908133 14.0307 1.61648C13.8808 1.73453 13.8036 1.92524 13.8036 2.11595V19.2524C13.8036 19.7701 14.3349 20.1288 14.8207 19.9562Z" fill="#3186E2"/>
</svg>
