<svg width="18" height="20" viewBox="0 0 18 20" fill="none" xmlns="http://www.w3.org/2000/svg">
<path d="M17.9501 6.50908C18.0695 6.84899 17.9688 7.22797 17.7114 7.47021L16.0963 9.00957C16.1373 9.33385 16.1597 9.66595 16.1597 10.002C16.1597 10.338 16.1373 10.6701 16.0963 10.9943L17.7114 12.5337C17.9688 12.7759 18.0695 13.1549 17.9501 13.4948C17.786 13.9598 17.5883 14.4052 17.3608 14.8349L17.1855 15.1514C16.9393 15.5812 16.6633 15.9875 16.3611 16.3704C16.1411 16.6517 15.7755 16.7455 15.4473 16.6361L13.3697 15.9445C12.8699 16.3469 12.3178 16.6829 11.7285 16.9369L11.2622 19.1678C11.1876 19.5233 10.9265 19.8046 10.5834 19.8633C10.0686 19.9531 9.53898 20 8.99814 20C8.45729 20 7.92763 19.9531 7.41289 19.8633C7.06973 19.8046 6.80863 19.5233 6.73403 19.1678L6.26779 16.9369C5.67845 16.6829 5.12641 16.3469 4.62659 15.9445L2.55272 16.64C2.22448 16.7494 1.85894 16.6517 1.63887 16.3743C1.33674 15.9914 1.06072 15.5851 0.814545 15.1553L0.639236 14.8388C0.411707 14.4091 0.214018 13.9637 0.0498982 13.4987C-0.0694614 13.1588 0.0312482 12.7798 0.288617 12.5376L1.9037 10.9982C1.86267 10.6701 1.84029 10.338 1.84029 10.002C1.84029 9.66595 1.86267 9.33385 1.9037 9.00957L0.288617 7.47021C0.0312482 7.22797 -0.0694614 6.84899 0.0498982 6.50908C0.214018 6.04415 0.411707 5.59875 0.639236 5.16898L0.814545 4.85251C1.06072 4.42274 1.33674 4.01641 1.63887 3.63352C1.85894 3.35222 2.22448 3.25845 2.55272 3.36785L4.63032 4.05939C5.13014 3.65696 5.68218 3.32096 6.27152 3.06701L6.73776 0.836101C6.81236 0.480563 7.07346 0.199258 7.41662 0.140652C7.93136 0.0468842 8.46102 0 9.00187 0C9.54271 0 10.0724 0.0468842 10.5871 0.136745C10.9303 0.195351 11.1914 0.476656 11.266 0.832194L11.7322 3.0631C12.3216 3.31705 12.8736 3.65306 13.3734 4.05548L15.451 3.36394C15.7793 3.25454 16.1448 3.35222 16.3649 3.62962C16.667 4.0125 16.943 4.41883 17.1892 4.8486L17.3645 5.16507C17.592 5.59484 17.7897 6.04024 17.9538 6.50518L17.9501 6.50908ZM9.00187 13.1276C9.79327 13.1276 10.5523 12.7983 11.1119 12.2121C11.6715 11.6259 11.9859 10.8309 11.9859 10.002C11.9859 9.17299 11.6715 8.37798 11.1119 7.79181C10.5523 7.20565 9.79327 6.87634 9.00187 6.87634C8.21046 6.87634 7.45147 7.20565 6.89187 7.79181C6.33226 8.37798 6.01788 9.17299 6.01788 10.002C6.01788 10.8309 6.33226 11.6259 6.89187 12.2121C7.45147 12.7983 8.21046 13.1276 9.00187 13.1276Z" fill="#F2F2F2"/>
</svg>
