<svg width="53" height="52" viewBox="0 0 53 52" fill="none" xmlns="http://www.w3.org/2000/svg">
<path d="M31.0283 34.6668H33C47.3932 34.6668 52.5 27.0834 52.5 20.5834C52.4979 18.8219 51.8826 17.1161 50.7598 15.7588C49.6369 14.4015 48.0766 13.4774 46.3467 13.1453C46.6933 12.4451 46.9895 11.721 47.2328 10.9786C47.6111 9.71097 47.6854 8.37208 47.4497 7.07039C47.2141 5.7687 46.6751 4.54083 45.8765 3.48625C45.0707 2.39953 44.0205 1.51771 42.8107 0.912081C41.601 0.306456 40.2657 -0.00596396 38.9128 8.62261e-05H14.0872C12.7338 -0.00521287 11.3981 0.308208 10.1883 0.914982C8.97854 1.52176 7.9286 2.40484 7.1235 3.49275C6.32488 4.54733 5.78592 5.7752 5.55028 7.07689C5.31463 8.37858 5.38894 9.71747 5.76717 10.9851C6.01053 11.7275 6.30668 12.4516 6.65333 13.1518C4.9245 13.4837 3.36502 14.4068 2.24231 15.7628C1.11961 17.1187 0.503626 18.823 0.5 20.5834C0.5 27.0834 5.60683 34.6668 20 34.6668H21.9717C22.0979 35.3245 22.1632 35.9925 22.1667 36.6623V43.3334C22.2039 43.9121 22.1173 44.4921 21.9127 45.0348C21.7081 45.5774 21.3902 46.0702 20.9801 46.4802C20.5701 46.8903 20.0773 47.2082 19.5347 47.4128C18.9921 47.6174 18.4121 47.704 17.8333 47.6668H13.5C12.9254 47.6668 12.3743 47.895 11.9679 48.3014C11.5616 48.7077 11.3333 49.2588 11.3333 49.8334C11.3333 50.4081 11.5616 50.9592 11.9679 51.3655C12.3743 51.7718 12.9254 52.0001 13.5 52.0001H39.5C40.0746 52.0001 40.6257 51.7718 41.0321 51.3655C41.4384 50.9592 41.6667 50.4081 41.6667 49.8334C41.6667 49.2588 41.4384 48.7077 41.0321 48.3014C40.6257 47.895 40.0746 47.6668 39.5 47.6668H35.1797C34.6001 47.7052 34.0189 47.6196 33.4751 47.4156C32.9312 47.2116 32.4371 46.8939 32.0257 46.4838C31.6144 46.0737 31.2952 45.5805 31.0896 45.0373C30.884 44.494 30.7966 43.9131 30.8333 43.3334V36.6601C30.837 35.9911 30.9022 35.3238 31.0283 34.6668ZM34.573 28.4896C38.2855 25.2007 41.4972 21.3868 44.1063 17.1688C44.3634 17.2752 44.6385 17.3311 44.9167 17.3334C45.7786 17.3334 46.6053 17.6758 47.2148 18.2853C47.8243 18.8948 48.1667 19.7215 48.1667 20.5834C48.1667 25.2981 44.1822 30.3334 33 30.3334H32.8787C33.3672 29.6529 33.9361 29.0338 34.573 28.4896ZM20 30.3334C8.81783 30.3334 4.83333 25.2981 4.83333 20.5834C4.83333 19.7215 5.17574 18.8948 5.78524 18.2853C6.39473 17.6758 7.22138 17.3334 8.08333 17.3334C8.36224 17.3313 8.63812 17.2754 8.89583 17.1688C11.5049 21.3868 14.7167 25.2007 18.4292 28.4896C19.0653 29.0339 19.6335 29.653 20.1213 30.3334H20Z" fill="#3186E2"/>
</svg>
